# xmcd
#
# Track frame offsets:
#	150
#	14699
#	27110
#	39294
#	49722
#	61488
#	72093
#	83289
#	93101
#	107353
#	118743
#	129066
#	141410
#	155561
#	165552
#	176701
#	184820
#	196519
#	206980
#	217996
#	228477
#	238734
#	248408
#	258283
#	267557
#	277004
#	288459
#	296795
#	308097
#	320652
#	333666
#	345670
#	355841
#	365565
#	378135
#	388296
#
# Disc length: 5322 seconds
#
# Revision: 0
# Processed by: cddbd v1.5.2PL0 Copyright (c) Steve Scherf et al.
# Submitted via: audiograbber 1.83.01
#
DISCID=1c14c824
DTITLE=Chuck Berry - Rock And Roll Music - Any Old Way You Choose It [CD 03) - 
DTITLE=Studio 1958-1960
DYEAR=2014
DGENRE=Rock and Roll
TTITLE0=Merry Christmas Baby [mono 1958]
TTITLE1=Run Rudolph Run [mono 1958]
TTITLE2=Little Queenie [mono 1959]
TTITLE3=That's My Desire [mono 1959]
TTITLE4=Do You Love Me [mono 1974]
TTITLE5=Almost Grown [mono 1959]
TTITLE6=Back In The U.S.A. [mono 1959]
TTITLE7=Fast B 6 [instrumental] [mono 2014]
TTITLE8=Blue On Blue [instrumental] [mono 1974]
TTITLE9=Betty Jean [mono 1960]
TTITLE10=County Line [mono 1974]
TTITLE11=Childhood Sweetheart [mono 1959]
TTITLE12=One O'Clock Jump [instrumental] [mono 1979]
TTITLE13=I Just Want To Make Love To You [mono 1963]
TTITLE14=Broken Arrow [mono 1959]
TTITLE15=Let It Rock [mono 1960]
TTITLE16=Too Pooped To Pop [mono 1960]
TTITLE17=Say You'll Be Mine [mono 1959]
TTITLE18=The Ecuadors: Let Me Sleep Woman [mono 1959]
TTITLE19=Drifting Blues [mono 1964]
TTITLE20=I Got To Find My Baby [mono 1960]
TTITLE21=Don't You Lie To Me [mono 1961]
TTITLE22=Worried Life Blues [mono 1960]
TTITLE23=Our Little Rendezvous [mono 1960]
TTITLE24=Bye Bye Johnny [mono 1960]
TTITLE25=Run Around [mono 1961]
TTITLE26=Jaguar And Thunderbird [mono 1960]
TTITLE27=Diploma For Two [mono 1963]
TTITLE28=Little Star [mono 1961]
TTITLE29=The Way It Was Before [mono 1961]
TTITLE30=Away From You [mono 1961]
TTITLE31=Down The Road Apiece [mono 1960]
TTITLE32=Confessin' The Blues [mono 1960]
TTITLE33=Sweet Sixteen [mono 1961]
TTITLE34=Thirteen Question Method [mono 1961]
TTITLE35=Stop And Listen [mono 1961]
EXTD=
EXTT0=
EXTT1=
EXTT2=
EXTT3=
EXTT4=
EXTT5=
EXTT6=
EXTT7=
EXTT8=
EXTT9=
EXTT10=
EXTT11=
EXTT12=
EXTT13=
EXTT14=
EXTT15=
EXTT16=
EXTT17=
EXTT18=
EXTT19=
EXTT20=
EXTT21=
EXTT22=
EXTT23=
EXTT24=
EXTT25=
EXTT26=
EXTT27=
EXTT28=
EXTT29=
EXTT30=
EXTT31=
EXTT32=
EXTT33=
EXTT34=
EXTT35=
PLAYORDER=
